<svg width="1199" height="416" viewBox="0 0 1199 416" fill="none" xmlns="http://www.w3.org/2000/svg">
<path d="M0.5 0.5H1198.5V376.067C1198.35 376.052 1198.17 376.035 1197.95 376.015C1197.24 375.948 1196.18 375.85 1194.81 375.729C1192.06 375.487 1188.08 375.153 1183.11 374.781C1173.18 374.038 1159.3 373.145 1143.55 372.55C1112.06 371.361 1073.02 371.359 1042.92 376.124C1019.22 379.875 1001.31 388.025 983.949 395.92C982.066 396.776 980.189 397.63 978.313 398.475C959.138 407.104 939.932 414.814 913.489 415.388C885.014 416.006 864.265 406.907 843.439 397.274C842.632 396.901 841.825 396.527 841.017 396.153C820.984 386.868 800.594 377.418 773.024 376.118C738.501 374.49 712.759 383.792 687.087 393.743C685.811 394.237 684.535 394.734 683.258 395.23C658.847 404.724 634.114 414.344 601.484 415.388C561.529 416.667 531.392 406.772 501.176 396.582C500.607 396.39 500.038 396.198 499.469 396.006C469.817 386.001 439.909 375.91 400.497 376.117C361.387 376.323 331.957 385.991 302.593 395.671L302.359 395.748C273.074 405.401 243.829 415.041 204.996 415.388C164.221 415.752 113.021 405.947 71.9882 396.04C51.4772 391.088 33.5172 386.113 20.6851 382.376C14.2692 380.507 9.13552 378.949 5.60627 377.857C3.84165 377.311 2.47816 376.882 1.55606 376.59C1.09501 376.444 0.744317 376.332 0.509006 376.256L0.5 376.253V0.5Z" fill="#DFB700" stroke="black"/>
</svg>
