<svg width="883" height="325" viewBox="0 0 883 325" fill="none" xmlns="http://www.w3.org/2000/svg">
<path d="M0 286.606L16.3846 283.411C32.671 280.315 65.4401 273.924 98.1111 268.431C130.782 262.939 163.551 258.345 196.222 269.929C228.893 281.613 261.662 309.575 294.333 314.868C327.004 320.26 359.773 302.884 392.444 301.586C425.115 300.288 457.885 314.868 490.556 321.059C523.227 327.251 555.996 324.854 588.667 322.557C621.338 320.26 654.107 317.864 686.778 310.274C719.449 302.585 752.218 289.602 784.889 280.315C817.56 270.928 850.329 265.336 866.615 262.44L883 259.643V0H866.615C850.329 0 817.56 0 784.889 0C752.218 0 719.449 0 686.778 0C654.107 0 621.338 0 588.667 0C555.996 0 523.227 0 490.556 0C457.885 0 425.115 0 392.444 0C359.773 0 327.004 0 294.333 0C261.662 0 228.893 0 196.222 0C163.551 0 130.782 0 98.1111 0C65.4401 0 32.671 0 16.3846 0H0V286.606Z" fill="#DFB700"/>
</svg>
