<svg width="900" height="116" viewBox="0 0 900 116" fill="none" xmlns="http://www.w3.org/2000/svg">
<path d="M0 69L21.5 69.2C43 69.3 86 69.7 128.8 78.5C171.7 87.3 214.3 104.7 257.2 111.7C300 118.7 343 115.3 385.8 109.8C428.7 104.3 471.3 96.7 514.2 89.5C557 82.3 600 75.7 642.8 77.8C685.7 80 728.3 91 771.2 94.7C814 98.3 857 94.7 878.5 92.8L900 91V0H878.5C857 0 814 0 771.2 0C728.3 0 685.7 0 642.8 0C600 0 557 0 514.2 0C471.3 0 428.7 0 385.8 0C343 0 300 0 257.2 0C214.3 0 171.7 0 128.8 0C86 0 43 0 21.5 0H0V69Z" fill="#EAB308"/>
</svg>
